<svg width="1000" height="1000" viewBox="0 0 1000 1000" fill="none" xmlns="http://www.w3.org/2000/svg">
<path d="M150 740L129 770H299C393 770 470 768 470 764C470 750 393 730 301 721C166 707 174 706 150 740Z" fill="#C19696"/>
<path d="M686 721C603 730 544 745 535 761C531 766 597 770 700 770H871L850 740C826 707 824 706 686 721Z" fill="#C19696"/>
<path d="M62 532L65 835L245 840C395 844 429 848 450 862C482 885 517 885 557 860C586 843 611 840 762 838L935 835L938 532L940 230H908H875L878 505L881 780H730H578L550 810C515 848 485 848 450 810L422 780H270H119L122 505L125 230H92H60L62 532Z" fill="#CD1C48"/>
<path d="M152 206C151 220 146 240 140 250C134 261 130 366 130 506V744L150 722C169 702 170 687 170 440C170 297 166 180 162 180C158 180 153 191 152 206Z" fill="#ECC1C1"/>
<path d="M830 440C830 687 831 702 850 722L870 744V508C870 319 867 265 855 236C846 216 842 195 845 190C849 184 846 180 841 180C833 180 830 264 830 440Z" fill="#ECC1C1"/>
<path d="M480 500C480 763 480 770 500 770C520 770 520 763 520 500C520 237 520 230 500 230C480 230 480 237 480 500Z" fill="#ECC1C1"/>
<path d="M169 164C167 166 166 290 168 439L171 710H238C325 710 429 727 458 746L480 760V486C480 225 479 210 461 200C431 184 384.5 200 369 227C364.186 235.386 344 234.5 340 224C336 213.5 332.5 208 322 197.5C314.5 190 316 193 297 179C282 167.947 183 151 169 164ZM416 584L395 606L375 585C354 565 354 565 374 543L394 522L415 542L437 563L416 584Z" fill="#ECECEC"/>
<path d="M669 171C626 175 576 186 556 194L520 209V485V760L543 746C571 727 675 710 763 710H830V445C830 299 831 177 833 172C836 162 758 161 669 171Z" fill="#ECECEC"/>
<path d="M358.317 108.284C364.629 119.19 373.782 130.389 385.385 140.738C397.376 151.433 410.386 159.792 422.999 165.435C410.386 171.077 397.376 179.436 385.385 190.131C373.393 200.826 364.02 212.43 357.694 223.68C351.368 212.431 341.997 200.827 330.006 190.132C318.211 179.612 305.432 171.351 293.014 165.714C305.821 160.07 319.063 151.61 331.252 140.738C342.855 130.39 352.006 119.19 358.317 108.284ZM234.229 163.812C234.5 164.148 234.781 164.477 235.073 164.799C235.041 164.829 235.01 164.859 234.979 164.89L234 164.018L234.229 163.812ZM358.417 54.9502C358.384 54.9741 358.35 54.9974 358.317 55.0215C357.928 54.7378 357.529 54.4654 357.122 54.2031L357.352 54L358.417 54.9502Z" fill="#4F51D2"/>
<path d="M396.567 534.73C399.439 540.302 403.604 546.023 408.884 551.31C414.34 556.773 420.26 561.044 425.999 563.926C420.26 566.808 414.34 571.079 408.884 576.542C403.428 582.005 399.163 587.932 396.284 593.679C393.406 587.932 389.141 582.005 383.685 576.542C378.318 571.168 372.503 566.947 366.853 564.067C372.68 561.184 378.706 556.863 384.252 551.31C389.532 546.023 393.695 540.302 396.567 534.73ZM340.105 563.095C340.23 563.267 340.358 563.436 340.491 563.602C340.476 563.617 340.461 563.633 340.446 563.648L340 563.201L340.105 563.095ZM396.613 507.486C396.598 507.499 396.582 507.51 396.567 507.522C396.39 507.377 396.207 507.24 396.021 507.105L396.128 507L396.613 507.486Z" fill="#4F51D2"/>
<path d="M706.567 387.73C709.439 393.302 713.604 399.023 718.884 404.31C724.34 409.773 730.26 414.044 735.999 416.926C730.26 419.808 724.34 424.079 718.884 429.542C713.428 435.005 709.163 440.932 706.284 446.679C703.406 440.932 699.141 435.005 693.685 429.542C688.318 424.168 682.503 419.947 676.853 417.067C682.68 414.184 688.706 409.863 694.252 404.31C699.532 399.023 703.695 393.302 706.567 387.73ZM650.105 416.095C650.23 416.267 650.358 416.436 650.491 416.602C650.476 416.617 650.461 416.633 650.446 416.648L650 416.201L650.105 416.095ZM706.613 360.486C706.598 360.499 706.582 360.51 706.567 360.522C706.39 360.377 706.207 360.24 706.021 360.105L706.128 360L706.613 360.486Z" fill="#4F51D2"/>
</svg>
